<?xml version="1.0" encoding="UTF-8"?>
<svg width="182px" height="115px" viewBox="0 0 182 115" version="1.1" xmlns="http://www.w3.org/2000/svg" xmlns:xlink="http://www.w3.org/1999/xlink">
    <!-- Generator: Sketch 64 (93537) - https://sketch.com -->
    <title>Group 3</title>
    <desc>Created with Sketch.</desc>
    <g id="Page-1" stroke="none" stroke-width="1" fill="none" fill-rule="evenodd" stroke-linecap="square">
        <g id="Artboard" transform="translate(-294.000000, -71.000000)" stroke="#FFFFFF" stroke-width="5">
            <g id="Group-3" transform="translate(298.000000, 74.000000)">
                <path d="M0,14.5 C14.0075699,4.83333333 27.9280367,0 41.7614005,0 C55.5947644,0 69.3458059,4.83333333 83.0145253,14.5 C99.7856603,24.1666667 115.154092,29 129.119819,29 C143.085547,29 157.712274,24.1666667 173,14.5" id="Line"></path>
                <path d="M0,54.5 C14.0075699,44.8333333 27.9280367,40 41.7614005,40 C55.5947644,40 69.3458059,44.8333333 83.0145253,54.5 C99.7856603,64.1666667 115.154092,69 129.119819,69 C143.085547,69 157.712274,64.1666667 173,54.5" id="Line"></path>
                <path d="M1,94.5 C15.0075699,84.8333333 28.9280367,80 42.7614005,80 C56.5947644,80 70.3458059,84.8333333 84.0145253,94.5 C100.78566,104.166667 116.154092,109 130.119819,109 C144.085547,109 158.712274,104.166667 174,94.5" id="Line"></path>
            </g>
        </g>
    </g>
</svg>