<?xml version="1.0" encoding="UTF-8"?>
<svg width="168px" height="106px" viewBox="0 0 168 106" version="1.1" xmlns="http://www.w3.org/2000/svg" xmlns:xlink="http://www.w3.org/1999/xlink">
    <!-- Generator: Sketch 64 (93537) - https://sketch.com -->
    <title>Group 3</title>
    <desc>Created with Sketch.</desc>
    <g id="Page-1" stroke="none" stroke-width="1" fill="none" fill-rule="evenodd" stroke-linecap="square">
        <g id="Artboard" transform="translate(-300.000000, -13.000000)" stroke="#0F0F46" stroke-width="5">
            <g id="Group-3" transform="translate(304.000000, 16.000000)">
                <path d="M0,13.3027523 C12.8509815,4.43425076 25.622052,0 38.3132115,0 C51.004371,0 63.6200054,4.43425076 76.1601149,13.3027523 C91.5464774,22.1712538 105.645956,26.6055046 118.45855,26.6055046 C131.271144,26.6055046 144.69016,22.1712538 158.715596,13.3027523" id="Line"></path>
                <path d="M0,50 C12.8509815,41.1314985 25.622052,36.6972477 38.3132115,36.6972477 C51.004371,36.6972477 63.6200054,41.1314985 76.1601149,50 C91.5464774,58.8685015 105.645956,63.3027523 118.45855,63.3027523 C131.271144,63.3027523 144.69016,58.8685015 158.715596,50" id="Line"></path>
                <path d="M0.917431193,86.6972477 C13.7684127,77.8287462 26.5394832,73.3944954 39.2306427,73.3944954 C51.9218022,73.3944954 64.5374366,77.8287462 77.0775461,86.6972477 C92.4639086,95.5657492 106.563387,100 119.375981,100 C132.188575,100 145.607591,95.5657492 159.633028,86.6972477" id="Line"></path>
            </g>
        </g>
    </g>
</svg>